<svg id="visual" viewBox="0 0 900 100" width="900" height="100" xmlns="http://www.w3.org/2000/svg" xmlns:xlink="http://www.w3.org/1999/xlink" version="1.1"><rect x="0" y="0" width="900" height="100" fill="#0E8388"></rect><path d="M0 49L9.3 47.2C18.7 45.3 37.3 41.7 56.2 37.8C75 34 94 30 112.8 32C131.7 34 150.3 42 169 46.3C187.7 50.7 206.3 51.3 225 49.8C243.7 48.3 262.3 44.7 281.2 41.8C300 39 319 37 337.8 40.2C356.7 43.3 375.3 51.7 394 53C412.7 54.3 431.3 48.7 450 45.7C468.7 42.7 487.3 42.3 506.2 41C525 39.7 544 37.3 562.8 35.3C581.7 33.3 600.3 31.7 619 33.5C637.7 35.3 656.3 40.7 675 42.5C693.7 44.3 712.3 42.7 731.2 44.8C750 47 769 53 787.8 50.5C806.7 48 825.3 37 844 37C862.7 37 881.3 48 890.7 53.5L900 59L900 0L890.7 0C881.3 0 862.7 0 844 0C825.3 0 806.7 0 787.8 0C769 0 750 0 731.2 0C712.3 0 693.7 0 675 0C656.3 0 637.7 0 619 0C600.3 0 581.7 0 562.8 0C544 0 525 0 506.2 0C487.3 0 468.7 0 450 0C431.3 0 412.7 0 394 0C375.3 0 356.7 0 337.8 0C319 0 300 0 281.2 0C262.3 0 243.7 0 225 0C206.3 0 187.7 0 169 0C150.3 0 131.7 0 112.8 0C94 0 75 0 56.2 0C37.3 0 18.7 0 9.3 0L0 0Z" fill="#376d8a"></path><path d="M0 27L9.3 28.8C18.7 30.7 37.3 34.3 56.2 33.8C75 33.3 94 28.7 112.8 26.7C131.7 24.7 150.3 25.3 169 24.5C187.7 23.7 206.3 21.3 225 23.3C243.7 25.3 262.3 31.7 281.2 34.7C300 37.7 319 37.3 337.8 35.5C356.7 33.7 375.3 30.3 394 31C412.7 31.7 431.3 36.3 450 36C468.7 35.7 487.3 30.3 506.2 28.3C525 26.3 544 27.7 562.8 27.3C581.7 27 600.3 25 619 23.7C637.7 22.3 656.3 21.7 675 20.8C693.7 20 712.3 19 731.2 22C750 25 769 32 787.8 34.8C806.7 37.7 825.3 36.3 844 32.5C862.7 28.7 881.3 22.3 890.7 19.2L900 16L900 0L890.7 0C881.3 0 862.7 0 844 0C825.3 0 806.7 0 787.8 0C769 0 750 0 731.2 0C712.3 0 693.7 0 675 0C656.3 0 637.7 0 619 0C600.3 0 581.7 0 562.8 0C544 0 525 0 506.2 0C487.3 0 468.7 0 450 0C431.3 0 412.7 0 394 0C375.3 0 356.7 0 337.8 0C319 0 300 0 281.2 0C262.3 0 243.7 0 225 0C206.3 0 187.7 0 169 0C150.3 0 131.7 0 112.8 0C94 0 75 0 56.2 0C37.3 0 18.7 0 9.3 0L0 0Z" fill="#264c66"></path><path d="M0 8L9.3 7.3C18.7 6.7 37.3 5.3 56.2 4.8C75 4.3 94 4.7 112.8 5.3C131.7 6 150.3 7 169 7.2C187.7 7.3 206.3 6.7 225 8.5C243.7 10.3 262.3 14.7 281.2 17.7C300 20.7 319 22.3 337.8 23.7C356.7 25 375.3 26 394 25.5C412.7 25 431.3 23 450 19.2C468.7 15.3 487.3 9.7 506.2 8.8C525 8 544 12 562.8 14.3C581.7 16.7 600.3 17.3 619 18.7C637.7 20 656.3 22 675 23.3C693.7 24.7 712.3 25.3 731.2 24.7C750 24 769 22 787.8 20.8C806.7 19.7 825.3 19.3 844 17.3C862.7 15.3 881.3 11.7 890.7 9.8L900 8L900 0L890.7 0C881.3 0 862.7 0 844 0C825.3 0 806.7 0 787.8 0C769 0 750 0 731.2 0C712.3 0 693.7 0 675 0C656.3 0 637.7 0 619 0C600.3 0 581.7 0 562.8 0C544 0 525 0 506.2 0C487.3 0 468.7 0 450 0C431.3 0 412.7 0 394 0C375.3 0 356.7 0 337.8 0C319 0 300 0 281.2 0C262.3 0 243.7 0 225 0C206.3 0 187.7 0 169 0C150.3 0 131.7 0 112.8 0C94 0 75 0 56.2 0C37.3 0 18.7 0 9.3 0L0 0Z" fill="#142e43"></path></svg>