<svg id="visual" viewBox="0 0 900 50" width="900" height="50" xmlns="http://www.w3.org/2000/svg" xmlns:xlink="http://www.w3.org/1999/xlink" version="1.1"><rect x="0" y="0" width="900" height="50" fill="#0E8388"></rect><path d="M0 22L9.3 23.7C18.7 25.3 37.3 28.7 56.2 29.3C75 30 94 28 112.8 26.3C131.7 24.7 150.3 23.3 169 24.3C187.7 25.3 206.3 28.7 225 29.5C243.7 30.3 262.3 28.7 281.2 28.2C300 27.7 319 28.3 337.8 29.5C356.7 30.7 375.3 32.3 394 31.8C412.7 31.3 431.3 28.7 450 27.7C468.7 26.7 487.3 27.3 506.2 26.5C525 25.7 544 23.3 562.8 22.5C581.7 21.7 600.3 22.3 619 24C637.7 25.7 656.3 28.3 675 28C693.7 27.7 712.3 24.3 731.2 24.5C750 24.7 769 28.3 787.8 29.8C806.7 31.3 825.3 30.7 844 30.2C862.7 29.7 881.3 29.3 890.7 29.2L900 29L900 0L890.7 0C881.3 0 862.7 0 844 0C825.3 0 806.7 0 787.8 0C769 0 750 0 731.2 0C712.3 0 693.7 0 675 0C656.3 0 637.7 0 619 0C600.3 0 581.7 0 562.8 0C544 0 525 0 506.2 0C487.3 0 468.7 0 450 0C431.3 0 412.7 0 394 0C375.3 0 356.7 0 337.8 0C319 0 300 0 281.2 0C262.3 0 243.7 0 225 0C206.3 0 187.7 0 169 0C150.3 0 131.7 0 112.8 0C94 0 75 0 56.2 0C37.3 0 18.7 0 9.3 0L0 0Z" fill="#376d8a"></path><path d="M0 17L9.3 17.8C18.7 18.7 37.3 20.3 56.2 21.5C75 22.7 94 23.3 112.8 23C131.7 22.7 150.3 21.3 169 20.8C187.7 20.3 206.3 20.7 225 20.5C243.7 20.3 262.3 19.7 281.2 20C300 20.3 319 21.7 337.8 22.7C356.7 23.7 375.3 24.3 394 23.7C412.7 23 431.3 21 450 21C468.7 21 487.3 23 506.2 22.2C525 21.3 544 17.7 562.8 16C581.7 14.3 600.3 14.7 619 15.3C637.7 16 656.3 17 675 18C693.7 19 712.3 20 731.2 19.8C750 19.7 769 18.3 787.8 17.8C806.7 17.3 825.3 17.7 844 17.3C862.7 17 881.3 16 890.7 15.5L900 15L900 0L890.7 0C881.3 0 862.7 0 844 0C825.3 0 806.7 0 787.8 0C769 0 750 0 731.2 0C712.3 0 693.7 0 675 0C656.3 0 637.7 0 619 0C600.3 0 581.7 0 562.8 0C544 0 525 0 506.2 0C487.3 0 468.7 0 450 0C431.3 0 412.7 0 394 0C375.3 0 356.7 0 337.8 0C319 0 300 0 281.2 0C262.3 0 243.7 0 225 0C206.3 0 187.7 0 169 0C150.3 0 131.7 0 112.8 0C94 0 75 0 56.2 0C37.3 0 18.7 0 9.3 0L0 0Z" fill="#2c5772"></path><path d="M0 10L9.3 10.8C18.7 11.7 37.3 13.3 56.2 14.3C75 15.3 94 15.7 112.8 16.2C131.7 16.7 150.3 17.3 169 16.7C187.7 16 206.3 14 225 12.3C243.7 10.7 262.3 9.3 281.2 9.8C300 10.3 319 12.7 337.8 14.5C356.7 16.3 375.3 17.7 394 18.2C412.7 18.7 431.3 18.3 450 16.8C468.7 15.3 487.3 12.7 506.2 11C525 9.3 544 8.7 562.8 8.7C581.7 8.7 600.3 9.3 619 10.8C637.7 12.3 656.3 14.7 675 14.7C693.7 14.7 712.3 12.3 731.2 11.3C750 10.3 769 10.7 787.8 12.2C806.7 13.7 825.3 16.3 844 16.8C862.7 17.3 881.3 15.7 890.7 14.8L900 14L900 0L890.7 0C881.3 0 862.7 0 844 0C825.3 0 806.7 0 787.8 0C769 0 750 0 731.2 0C712.3 0 693.7 0 675 0C656.3 0 637.7 0 619 0C600.3 0 581.7 0 562.8 0C544 0 525 0 506.2 0C487.3 0 468.7 0 450 0C431.3 0 412.7 0 394 0C375.3 0 356.7 0 337.8 0C319 0 300 0 281.2 0C262.3 0 243.7 0 225 0C206.3 0 187.7 0 169 0C150.3 0 131.7 0 112.8 0C94 0 75 0 56.2 0C37.3 0 18.7 0 9.3 0L0 0Z" fill="#20425a"></path><path d="M0 9L9.3 8.2C18.7 7.3 37.3 5.7 56.2 5.7C75 5.7 94 7.3 112.8 7.3C131.7 7.3 150.3 5.7 169 5.3C187.7 5 206.3 6 225 6.7C243.7 7.3 262.3 7.7 281.2 8C300 8.3 319 8.7 337.8 8.7C356.7 8.7 375.3 8.3 394 8.7C412.7 9 431.3 10 450 10.5C468.7 11 487.3 11 506.2 10.5C525 10 544 9 562.8 8C581.7 7 600.3 6 619 6C637.7 6 656.3 7 675 7.7C693.7 8.3 712.3 8.7 731.2 8.8C750 9 769 9 787.8 8.8C806.7 8.7 825.3 8.3 844 8.7C862.7 9 881.3 10 890.7 10.5L900 11L900 0L890.7 0C881.3 0 862.7 0 844 0C825.3 0 806.7 0 787.8 0C769 0 750 0 731.2 0C712.3 0 693.7 0 675 0C656.3 0 637.7 0 619 0C600.3 0 581.7 0 562.8 0C544 0 525 0 506.2 0C487.3 0 468.7 0 450 0C431.3 0 412.7 0 394 0C375.3 0 356.7 0 337.8 0C319 0 300 0 281.2 0C262.3 0 243.7 0 225 0C206.3 0 187.7 0 169 0C150.3 0 131.7 0 112.8 0C94 0 75 0 56.2 0C37.3 0 18.7 0 9.3 0L0 0Z" fill="#142e43"></path></svg>