<svg id="visual" viewBox="0 0 900 300" width="900" height="300" xmlns="http://www.w3.org/2000/svg" xmlns:xlink="http://www.w3.org/1999/xlink" version="1.1"><rect x="0" y="0" width="900" height="300" fill="#142e43"></rect><path d="M0 118L8.3 115.2C16.7 112.3 33.3 106.7 50 107.3C66.7 108 83.3 115 100 122.2C116.7 129.3 133.3 136.7 150 141.5C166.7 146.3 183.3 148.7 200 145.7C216.7 142.7 233.3 134.3 250 129C266.7 123.7 283.3 121.3 300 121.5C316.7 121.7 333.3 124.3 350 126.2C366.7 128 383.3 129 400 130.5C416.7 132 433.3 134 450 133.3C466.7 132.7 483.3 129.3 500 123.8C516.7 118.3 533.3 110.7 550 109.5C566.7 108.3 583.3 113.7 600 117.2C616.7 120.7 633.3 122.3 650 124.8C666.7 127.3 683.3 130.7 700 127.7C716.7 124.7 733.3 115.3 750 117.8C766.7 120.3 783.3 134.7 800 141.5C816.7 148.3 833.3 147.7 850 142.8C866.7 138 883.3 129 891.7 124.5L900 120L900 0L891.7 0C883.3 0 866.7 0 850 0C833.3 0 816.7 0 800 0C783.3 0 766.7 0 750 0C733.3 0 716.7 0 700 0C683.3 0 666.7 0 650 0C633.3 0 616.7 0 600 0C583.3 0 566.7 0 550 0C533.3 0 516.7 0 500 0C483.3 0 466.7 0 450 0C433.3 0 416.7 0 400 0C383.3 0 366.7 0 350 0C333.3 0 316.7 0 300 0C283.3 0 266.7 0 250 0C233.3 0 216.7 0 200 0C183.3 0 166.7 0 150 0C133.3 0 116.7 0 100 0C83.3 0 66.7 0 50 0C33.3 0 16.7 0 8.3 0L0 0Z" fill="#fa7268"></path><path d="M0 79L8.3 78.8C16.7 78.7 33.3 78.3 50 81C66.7 83.7 83.3 89.3 100 91C116.7 92.7 133.3 90.3 150 91.3C166.7 92.3 183.3 96.7 200 95.8C216.7 95 233.3 89 250 84.8C266.7 80.7 283.3 78.3 300 79.7C316.7 81 333.3 86 350 91.8C366.7 97.7 383.3 104.3 400 102.2C416.7 100 433.3 89 450 88.2C466.7 87.3 483.3 96.7 500 98.7C516.7 100.7 533.3 95.3 550 93.7C566.7 92 583.3 94 600 95.8C616.7 97.7 633.3 99.3 650 96.5C666.7 93.7 683.3 86.3 700 85.8C716.7 85.3 733.3 91.7 750 96.5C766.7 101.3 783.3 104.7 800 103C816.7 101.3 833.3 94.7 850 94.3C866.7 94 883.3 100 891.7 103L900 106L900 0L891.7 0C883.3 0 866.7 0 850 0C833.3 0 816.7 0 800 0C783.3 0 766.7 0 750 0C733.3 0 716.7 0 700 0C683.3 0 666.7 0 650 0C633.3 0 616.7 0 600 0C583.3 0 566.7 0 550 0C533.3 0 516.7 0 500 0C483.3 0 466.7 0 450 0C433.3 0 416.7 0 400 0C383.3 0 366.7 0 350 0C333.3 0 316.7 0 300 0C283.3 0 266.7 0 250 0C233.3 0 216.7 0 200 0C183.3 0 166.7 0 150 0C133.3 0 116.7 0 100 0C83.3 0 66.7 0 50 0C33.3 0 16.7 0 8.3 0L0 0Z" fill="#eb5967"></path><path d="M0 83L8.3 79.2C16.7 75.3 33.3 67.7 50 61.8C66.7 56 83.3 52 100 51.7C116.7 51.3 133.3 54.7 150 57C166.7 59.3 183.3 60.7 200 65.3C216.7 70 233.3 78 250 77.7C266.7 77.3 283.3 68.7 300 66C316.7 63.3 333.3 66.7 350 70.5C366.7 74.3 383.3 78.7 400 78.7C416.7 78.7 433.3 74.3 450 71.5C466.7 68.7 483.3 67.3 500 66.8C516.7 66.3 533.3 66.7 550 69.2C566.7 71.7 583.3 76.3 600 79.2C616.7 82 633.3 83 650 79.8C666.7 76.7 683.3 69.3 700 63.5C716.7 57.7 733.3 53.3 750 57C766.7 60.7 783.3 72.3 800 73.8C816.7 75.3 833.3 66.7 850 62.7C866.7 58.7 883.3 59.3 891.7 59.7L900 60L900 0L891.7 0C883.3 0 866.7 0 850 0C833.3 0 816.7 0 800 0C783.3 0 766.7 0 750 0C733.3 0 716.7 0 700 0C683.3 0 666.7 0 650 0C633.3 0 616.7 0 600 0C583.3 0 566.7 0 550 0C533.3 0 516.7 0 500 0C483.3 0 466.7 0 450 0C433.3 0 416.7 0 400 0C383.3 0 366.7 0 350 0C333.3 0 316.7 0 300 0C283.3 0 266.7 0 250 0C233.3 0 216.7 0 200 0C183.3 0 166.7 0 150 0C133.3 0 116.7 0 100 0C83.3 0 66.7 0 50 0C33.3 0 16.7 0 8.3 0L0 0Z" fill="#da3f67"></path><path d="M0 24L8.3 23.3C16.7 22.7 33.3 21.3 50 24.5C66.7 27.7 83.3 35.3 100 35C116.7 34.7 133.3 26.3 150 23C166.7 19.7 183.3 21.3 200 26.7C216.7 32 233.3 41 250 42C266.7 43 283.3 36 300 34.2C316.7 32.3 333.3 35.7 350 34.5C366.7 33.3 383.3 27.7 400 27.8C416.7 28 433.3 34 450 33.3C466.7 32.7 483.3 25.3 500 21.7C516.7 18 533.3 18 550 22.2C566.7 26.3 583.3 34.7 600 35.5C616.7 36.3 633.3 29.7 650 27C666.7 24.3 683.3 25.7 700 28.7C716.7 31.7 733.3 36.3 750 36.7C766.7 37 783.3 33 800 32.2C816.7 31.3 833.3 33.7 850 34.3C866.7 35 883.3 34 891.7 33.5L900 33L900 0L891.7 0C883.3 0 866.7 0 850 0C833.3 0 816.7 0 800 0C783.3 0 766.7 0 750 0C733.3 0 716.7 0 700 0C683.3 0 666.7 0 650 0C633.3 0 616.7 0 600 0C583.3 0 566.7 0 550 0C533.3 0 516.7 0 500 0C483.3 0 466.7 0 450 0C433.3 0 416.7 0 400 0C383.3 0 366.7 0 350 0C333.3 0 316.7 0 300 0C283.3 0 266.7 0 250 0C233.3 0 216.7 0 200 0C183.3 0 166.7 0 150 0C133.3 0 116.7 0 100 0C83.3 0 66.7 0 50 0C33.3 0 16.7 0 8.3 0L0 0Z" fill="#c62368"></path></svg>