<svg id="visual" viewBox="0 0 900 100" width="900" height="100" xmlns="http://www.w3.org/2000/svg" xmlns:xlink="http://www.w3.org/1999/xlink" version="1.1"><rect x="0" y="0" width="900" height="100" fill="#142e43"></rect><path d="M0 49L9.3 48.2C18.7 47.3 37.3 45.7 56.2 43.3C75 41 94 38 112.8 39.7C131.7 41.3 150.3 47.7 169 49.5C187.7 51.3 206.3 48.7 225 49.7C243.7 50.7 262.3 55.3 281.2 56.3C300 57.3 319 54.7 337.8 50C356.7 45.3 375.3 38.7 394 36C412.7 33.3 431.3 34.7 450 36C468.7 37.3 487.3 38.7 506.2 42.3C525 46 544 52 562.8 52C581.7 52 600.3 46 619 44.8C637.7 43.7 656.3 47.3 675 50C693.7 52.7 712.3 54.3 731.2 50C750 45.7 769 35.3 787.8 32C806.7 28.7 825.3 32.3 844 33.8C862.7 35.3 881.3 34.7 890.7 34.3L900 34L900 0L890.7 0C881.3 0 862.7 0 844 0C825.3 0 806.7 0 787.8 0C769 0 750 0 731.2 0C712.3 0 693.7 0 675 0C656.3 0 637.7 0 619 0C600.3 0 581.7 0 562.8 0C544 0 525 0 506.2 0C487.3 0 468.7 0 450 0C431.3 0 412.7 0 394 0C375.3 0 356.7 0 337.8 0C319 0 300 0 281.2 0C262.3 0 243.7 0 225 0C206.3 0 187.7 0 169 0C150.3 0 131.7 0 112.8 0C94 0 75 0 56.2 0C37.3 0 18.7 0 9.3 0L0 0Z" fill="#277ead"></path><path d="M0 25L9.3 27.3C18.7 29.7 37.3 34.3 56.2 33.8C75 33.3 94 27.7 112.8 28.3C131.7 29 150.3 36 169 37.7C187.7 39.3 206.3 35.7 225 35.8C243.7 36 262.3 40 281.2 39.3C300 38.7 319 33.3 337.8 31.8C356.7 30.3 375.3 32.7 394 30.5C412.7 28.3 431.3 21.7 450 21.2C468.7 20.7 487.3 26.3 506.2 28.8C525 31.3 544 30.7 562.8 28.3C581.7 26 600.3 22 619 23.2C637.7 24.3 656.3 30.7 675 31.8C693.7 33 712.3 29 731.2 25.3C750 21.7 769 18.3 787.8 17.7C806.7 17 825.3 19 844 20.8C862.7 22.7 881.3 24.3 890.7 25.2L900 26L900 0L890.7 0C881.3 0 862.7 0 844 0C825.3 0 806.7 0 787.8 0C769 0 750 0 731.2 0C712.3 0 693.7 0 675 0C656.3 0 637.7 0 619 0C600.3 0 581.7 0 562.8 0C544 0 525 0 506.2 0C487.3 0 468.7 0 450 0C431.3 0 412.7 0 394 0C375.3 0 356.7 0 337.8 0C319 0 300 0 281.2 0C262.3 0 243.7 0 225 0C206.3 0 187.7 0 169 0C150.3 0 131.7 0 112.8 0C94 0 75 0 56.2 0C37.3 0 18.7 0 9.3 0L0 0Z" fill="#3da4d6"></path><path d="M0 27L9.3 24C18.7 21 37.3 15 56.2 14.5C75 14 94 19 112.8 21.2C131.7 23.3 150.3 22.7 169 20.8C187.7 19 206.3 16 225 16.7C243.7 17.3 262.3 21.7 281.2 23.2C300 24.7 319 23.3 337.8 21.3C356.7 19.3 375.3 16.7 394 14.2C412.7 11.7 431.3 9.3 450 8.8C468.7 8.3 487.3 9.7 506.2 9.7C525 9.7 544 8.3 562.8 9.8C581.7 11.3 600.3 15.7 619 16.2C637.7 16.7 656.3 13.3 675 13.8C693.7 14.3 712.3 18.7 731.2 21.5C750 24.3 769 25.7 787.8 25.7C806.7 25.7 825.3 24.3 844 22C862.7 19.7 881.3 16.3 890.7 14.7L900 13L900 0L890.7 0C881.3 0 862.7 0 844 0C825.3 0 806.7 0 787.8 0C769 0 750 0 731.2 0C712.3 0 693.7 0 675 0C656.3 0 637.7 0 619 0C600.3 0 581.7 0 562.8 0C544 0 525 0 506.2 0C487.3 0 468.7 0 450 0C431.3 0 412.7 0 394 0C375.3 0 356.7 0 337.8 0C319 0 300 0 281.2 0C262.3 0 243.7 0 225 0C206.3 0 187.7 0 169 0C150.3 0 131.7 0 112.8 0C94 0 75 0 56.2 0C37.3 0 18.7 0 9.3 0L0 0Z" fill="#52ccff"></path></svg>